<?xml version="1.0" standalone="no"?>
<!DOCTYPE svg PUBLIC "-//W3C//DTD SVG 20010904//EN"
 "http://www.w3.org/TR/2001/REC-SVG-20010904/DTD/svg10.dtd">
<svg version="1.0" xmlns="http://www.w3.org/2000/svg"
 width="225.000000pt" height="225.000000pt" viewBox="0 0 225.000000 225.000000"
 preserveAspectRatio="xMidYMid meet">
<metadata>
Created by potrace 1.10, written by Peter Selinger 2001-2011
</metadata>
<g transform="translate(0.000000,225.000000) scale(0.100000,-0.100000)"
fill="#000000" stroke="none">
<path d="M1781 1904 c-13 -35 -91 -124 -109 -124 -5 0 -7 13 -4 29 8 59 -83
94 -126 48 -42 -44 -17 -107 41 -107 43 0 32 -16 -28 -41 -30 -12 -55 -26 -55
-31 0 -22 77 7 133 50 23 18 62 47 87 65 25 18 57 54 72 82 31 57 33 65 15 65
-7 0 -19 -16 -26 -36z m-159 -57 c28 -22 27 -73 -2 -82 -28 -9 -79 21 -80 48
0 12 39 47 53 47 6 0 19 -6 29 -13z"/>
<path d="M776 1897 c-55 -55 -14 -147 59 -133 87 17 85 135 -2 152 -26 5 -37
1 -57 -19z m82 -19 c15 -15 15 -61 0 -76 -20 -20 -56 -14 -74 13 -15 23 -15
27 0 50 18 27 54 33 74 13z"/>
<path d="M997 1695 c-219 -29 -400 -55 -403 -58 -3 -2 -18 -51 -34 -108 l-29
-104 -1 -391 0 -390 -66 -54 c-36 -30 -61 -56 -57 -57 4 -1 186 -36 403 -78
217 -42 404 -78 415 -80 15 -4 32 12 74 68 l54 72 221 82 221 81 0 64 c0 34
-4 194 -9 355 -7 257 -10 293 -25 297 -9 3 -95 26 -191 52 -96 26 -178 50
-182 53 -4 3 1 61 11 129 12 83 14 122 7 121 -6 -1 -190 -25 -409 -54z m369
-74 l-20 -100 -56 -5 c-235 -24 -703 -66 -706 -63 -7 7 40 149 50 153 6 2 171
26 366 54 195 28 360 52 365 55 6 2 12 4 15 4 3 1 -3 -44 -14 -98z m5 -133
c11 -21 11 -22 -4 -9 -16 12 -17 7 -17 -58 0 -60 -3 -71 -17 -71 -9 0 -92 -7
-184 -16 l-167 -16 -173 41 c-226 54 -219 53 -219 41 0 -12 -22 -9 -31 4 -4 4
-4 17 -2 28 5 18 6 18 25 1 18 -16 37 -15 390 18 245 24 373 40 376 47 5 17
10 15 23 -10z m193 -73 c92 -24 170 -46 172 -47 3 -4 21 -421 25 -588 l2 -75
-184 -63 c-101 -34 -190 -70 -197 -80 -12 -16 -14 -16 -30 4 -16 20 -39 24
-322 49 -168 14 -321 29 -340 32 -30 6 -32 7 -10 10 14 2 90 17 170 34 l145
30 175 -18 175 -18 3 -52 c2 -33 8 -53 17 -57 13 -5 15 55 15 439 0 245 3 445
8 445 4 0 83 -20 176 -45z m-792 -86 l188 -44 0 -270 0 -270 -178 -39 c-97
-22 -186 -41 -197 -43 -20 -4 -20 1 -20 356 0 237 3 360 10 358 6 -2 94 -24
197 -48z m578 -309 c0 -233 -3 -300 -12 -300 -7 0 -86 7 -175 16 l-163 17 0
269 0 268 53 1 c28 0 97 7 152 14 55 7 110 13 123 14 l22 1 0 -300z m-360
-430 c162 -17 308 -34 323 -38 l28 -7 -56 -67 c-31 -38 -63 -68 -70 -68 -7 0
-167 29 -353 65 -187 36 -350 65 -361 65 -30 0 -27 7 26 54 l46 42 61 -7 c34
-4 194 -22 356 -39z"/>
<path d="M1433 1094 c-9 -24 10 -49 37 -49 31 0 48 28 31 49 -17 21 -60 21
-68 0z m47 -19 c0 -8 -4 -15 -9 -15 -13 0 -22 16 -14 24 11 11 23 6 23 -9z"/>
<path d="M1609 1094 c-9 -11 -10 -20 -2 -32 24 -39 82 -15 68 28 -8 24 -47 27
-66 4z m41 -14 c0 -5 -4 -10 -10 -10 -5 0 -10 5 -10 10 0 6 5 10 10 10 6 0 10
-4 10 -10z"/>
<path d="M1535 980 c-29 -11 -68 -57 -61 -69 4 -6 21 -1 43 14 45 31 82 32
119 3 24 -19 27 -20 21 -4 -4 10 -7 22 -7 27 0 11 -62 39 -82 38 -7 0 -22 -4
-33 -9z"/>
<path d="M1910 1605 c0 -20 -5 -25 -25 -25 -16 0 -25 -6 -25 -15 0 -9 9 -15
25 -15 20 0 25 -5 25 -25 0 -16 6 -25 15 -25 21 0 19 40 -2 56 -17 12 -17 13
0 19 21 9 23 55 2 55 -9 0 -15 -9 -15 -25z"/>
<path d="M1940 1565 c0 -9 9 -15 25 -15 16 0 25 6 25 15 0 9 -9 15 -25 15 -16
0 -25 -6 -25 -15z"/>
<path d="M272 1278 c-6 -6 -12 -27 -12 -45 0 -24 7 -37 26 -50 23 -15 29 -15
52 -2 56 32 44 102 -18 107 -19 2 -41 -3 -48 -10z m72 -35 c7 -18 -10 -43 -30
-43 -23 0 -36 36 -19 54 18 17 41 12 49 -11z"/>
<path d="M260 900 c0 -13 -7 -20 -20 -20 -11 0 -20 -7 -20 -16 0 -11 6 -14 20
-9 17 5 20 2 20 -20 0 -30 21 -30 30 1 3 10 11 19 19 19 8 0 16 6 19 13 2 7
-5 12 -17 12 -14 0 -21 6 -21 20 0 11 -7 20 -15 20 -8 0 -15 -9 -15 -20z"/>
<path d="M1946 784 c-19 -18 -20 -28 -6 -55 21 -39 90 -16 90 30 0 16 -30 41
-50 41 -10 0 -26 -7 -34 -16z m51 -15 c15 -15 5 -39 -17 -39 -22 0 -32 24 -17
39 6 6 14 11 17 11 3 0 11 -5 17 -11z"/>
</g>
</svg>
